<?xml version="1.0" standalone="no"?>
<!DOCTYPE svg PUBLIC "-//W3C//DTD SVG 20010904//EN"
 "http://www.w3.org/TR/2001/REC-SVG-20010904/DTD/svg10.dtd">
<svg version="1.0" xmlns="http://www.w3.org/2000/svg"
 width="662.000000pt" height="738.000000pt" viewBox="0 0 662.000000 738.000000"
 preserveAspectRatio="xMidYMid meet">

<g transform="translate(0.000000,738.000000) scale(0.100000,-0.100000)"
fill="#000000" stroke="none">
<path d="M0 3690 l0 -3690 3310 0 3310 0 0 3690 0 3690 -3310 0 -3310 0 0
-3690z m5436 3253 c-10 -10 -19 5 -10 18 6 11 8 11 12 0 2 -7 1 -15 -2 -18z
m-3993 -2 c3 -14 1 -18 -9 -14 -8 3 -14 11 -14 19 0 21 17 17 23 -5z m3897
-12 c0 -6 -4 -7 -10 -4 -5 3 -10 11 -10 16 0 6 5 7 10 4 6 -3 10 -11 10 -16z
m-3790 2 c0 -5 -7 -11 -15 -15 -15 -5 -20 5 -8 17 9 10 23 9 23 -2z m3989 -23
c-1 -18 -3 -25 -6 -15 -2 9 -9 14 -14 11 -6 -3 -5 3 3 15 17 28 18 27 17 -11z
m-4207 -10 c-9 -9 -12 -7 -12 12 0 19 3 21 12 12 9 -9 9 -15 0 -24z m4015 -10
c-3 -8 -6 -5 -6 6 -1 11 2 17 5 13 3 -3 4 -12 1 -19z m-4099 -34 c-10 -10 -28
6 -28 24 0 15 1 15 17 -1 9 -9 14 -19 11 -23z m269 14 c-3 -8 -6 -5 -6 6 -1
11 2 17 5 13 3 -3 4 -12 1 -19z m4123 1 c0 -11 -5 -19 -11 -17 -7 2 -26 -10
-43 -27 -50 -51 -101 -85 -158 -107 -29 -11 -51 -18 -48 -15 3 3 22 19 43 36
21 16 51 46 68 67 16 20 29 33 29 29 0 -4 -16 -28 -36 -51 -19 -24 -33 -44
-29 -44 15 0 85 53 130 99 28 28 51 51 53 51 1 0 2 -9 2 -21z m-140 -3 c0 -2
-8 -10 -17 -17 -16 -13 -17 -12 -4 4 13 16 21 21 21 13z m-153 -38 c-3 -7 -5
-2 -5 12 0 14 2 19 5 13 2 -7 2 -19 0 -25z m-3830 0 c-3 -8 -6 -5 -6 6 -1 11
2 17 5 13 3 -3 4 -12 1 -19z m4104 -11 c-10 -9 -11 -8 -5 6 3 10 9 15 12 12 3
-3 0 -11 -7 -18z m-4330 -4 c13 -16 12 -17 -3 -4 -17 13 -22 21 -14 21 2 0 10
-8 17 -17z m4066 -30 c-13 -21 -32 -45 -42 -53 -17 -14 -17 -14 0 20 17 33 56
79 63 74 2 -1 -8 -19 -21 -41z m83 18 c-21 -31 -100 -98 -100 -86 0 14 56 71
67 68 5 -2 18 8 27 22 9 14 19 25 22 25 3 0 -4 -13 -16 -29z m-4230 -12 c0 -5
-7 -6 -15 -3 -8 4 -15 13 -15 21 0 13 3 13 15 3 8 -7 15 -16 15 -21z m4470 17
c0 -7 -8 -16 -17 -20 -10 -3 -39 -23 -66 -44 -38 -31 -147 -80 -147 -67 0 2
24 18 53 36 28 19 65 47 81 64 22 23 26 25 17 7 -6 -12 -23 -29 -37 -38 -13
-9 -22 -19 -20 -21 8 -8 68 32 100 66 34 35 36 36 36 17z m-4138 -59 c17 -34
18 -39 4 -28 -16 14 -46 63 -46 76 0 16 22 -10 42 -48z m1993 -164 c0 -129 4
-216 10 -221 6 -5 55 -44 110 -87 55 -43 118 -95 140 -115 22 -19 50 -43 63
-51 18 -13 21 -20 13 -40 -10 -24 -10 -24 -10 -1 -1 26 -9 27 -37 8 -30 -21
-109 -17 -135 7 l-21 20 7 -22 c4 -12 2 -21 -4 -21 -6 0 -11 7 -11 15 0 8 -4
15 -10 15 -14 0 -12 -16 3 -32 8 -7 16 -18 18 -24 5 -13 226 -200 346 -293
l82 -64 3 -956 3 -956 24 -64 c33 -89 107 -195 193 -277 41 -38 179 -161 308
-274 129 -113 270 -238 314 -278 44 -39 84 -72 88 -72 9 0 21 44 50 175 20 87
22 129 22 335 0 206 -2 247 -22 334 -20 90 -22 126 -22 379 0 238 2 278 14
268 21 -17 113 -210 151 -317 84 -230 110 -394 109 -674 -1 -190 -4 -230 -27
-341 -26 -125 -72 -269 -87 -269 -4 0 -12 10 -19 23 l-11 22 6 -23 c5 -21 4
-22 -15 -10 -12 7 -21 16 -21 20 0 5 -6 8 -12 8 -7 0 6 -19 30 -41 23 -23 42
-45 42 -50 0 -22 -93 -219 -104 -219 -6 0 -27 15 -46 33 -61 57 -411 366 -591
522 -168 145 -309 276 -383 353 -93 99 -162 219 -199 349 -22 78 -22 82 -24
978 -2 495 -5 905 -7 911 -6 17 -438 359 -449 356 -5 -1 -107 -80 -227 -175
l-219 -172 0 -875 c-1 -561 -5 -898 -12 -940 -15 -95 -53 -199 -101 -282 -45
-75 -221 -263 -368 -390 -136 -118 -274 -239 -349 -307 -40 -36 -97 -86 -126
-111 -29 -25 -105 -91 -168 -148 -63 -56 -119 -102 -125 -102 -9 0 -61 107
-88 182 -12 35 -11 40 12 67 27 33 31 46 9 38 -8 -4 -17 -2 -20 3 -3 5 -11 7
-18 4 -27 -10 -87 219 -106 405 -33 315 8 620 121 901 33 82 124 269 139 284
5 6 9 -104 9 -278 0 -260 -2 -298 -22 -389 -30 -139 -33 -492 -5 -632 22 -113
48 -205 56 -205 3 0 78 64 167 143 88 78 230 202 315 276 225 196 337 313 381
396 69 132 68 118 68 1138 l0 914 33 29 c17 16 64 54 102 84 39 30 84 66 100
81 17 15 57 50 90 79 108 94 125 112 120 120 -3 5 -12 7 -19 4 -8 -3 -17 -1
-21 5 -3 6 -17 8 -30 5 -13 -3 -52 -6 -87 -7 -51 -2 -64 1 -65 13 -1 8 77 78
173 155 l174 139 0 213 0 214 113 -3 112 -3 0 -212z m-2190 187 c10 -11 16
-20 13 -20 -3 0 -13 9 -23 20 -10 11 -16 20 -13 20 3 0 13 -9 23 -20z m148
-25 c31 -38 23 -49 -10 -12 -26 29 -36 47 -26 47 4 0 21 -16 36 -35z m-41 -26
c34 -18 13 -21 -25 -3 -21 10 -33 22 -30 30 4 11 8 11 20 -1 8 -8 24 -20 35
-26z m4202 26 c-4 -8 -11 -15 -16 -15 -6 0 -5 6 2 15 7 8 14 15 16 15 2 0 1
-7 -2 -15z m-4273 -63 c-16 -5 -82 29 -75 39 3 5 23 -1 45 -13 22 -12 36 -24
30 -26z m-247 17 c-6 -11 -24 -2 -24 11 0 5 7 7 15 4 8 -4 12 -10 9 -15z
m4461 -5 c-22 -13 -39 -29 -37 -34 1 -6 -17 -10 -40 -10 l-43 0 59 25 c32 13
64 29 69 34 6 6 16 11 22 11 5 0 -8 -12 -30 -26z m155 21 c0 -13 -33 -54 -48
-60 -14 -5 -14 -4 0 12 8 10 18 26 21 36 6 15 27 25 27 12z m-4099 -22 c13
-16 12 -17 -3 -4 -10 7 -18 15 -18 17 0 8 8 3 21 -13z m-466 -11 c-3 -3 -11 0
-18 7 -9 10 -8 11 6 5 10 -3 15 -9 12 -12z m4450 -12 c-11 -5 -31 -8 -45 -8
-23 0 -22 1 5 8 42 11 65 11 40 0z m-4368 -6 c-3 -3 -12 -4 -19 -1 -8 3 -5 6
6 6 11 1 17 -2 13 -5z m78 -4 c17 -7 15 -9 -12 -9 -18 -1 -33 4 -33 9 0 12 17
12 45 0z m355 -25 c13 -14 21 -25 18 -25 -2 0 -15 11 -28 25 -13 14 -21 25
-18 25 2 0 15 -11 28 -25z m2090 21 c0 -2 -7 -6 -15 -10 -8 -3 -15 -1 -15 4 0
6 7 10 15 10 8 0 15 -2 15 -4z m-2585 -26 c6 -5 36 -16 68 -25 32 -9 57 -19
54 -21 -7 -8 -181 33 -184 43 -4 12 47 15 62 3z m4512 -4 c-2 -6 -12 -10 -22
-9 -10 0 -36 -5 -58 -13 -22 -8 -58 -14 -81 -13 -37 0 -35 2 33 20 41 10 76
21 78 23 9 9 53 2 50 -8z m-1987 -6 c0 -5 -4 -10 -10 -10 -5 0 -10 5 -10 10 0
6 5 10 10 10 6 0 10 -4 10 -10z m-630 -24 c0 -13 2 -30 5 -38 2 -7 -5 -24 -16
-38 -17 -20 -20 -21 -14 -5 16 48 18 87 4 96 -11 7 -11 9 4 9 11 0 17 -8 17
-24z m673 -13 c8 -39 -5 -43 -21 -7 -7 14 -8 23 -2 19 5 -3 10 2 10 11 0 25 6
14 13 -23z m1357 23 c0 -2 -8 -10 -17 -17 -16 -13 -17 -12 -4 4 13 16 21 21
21 13z m540 -21 c-14 -8 -29 -14 -35 -14 -5 0 1 6 15 14 14 8 30 14 35 14 6 0
-1 -6 -15 -14z m-4455 -13 c-3 -3 -11 0 -18 7 -9 10 -8 11 6 5 10 -3 15 -9 12
-12z m1935 14 c0 -2 -7 -7 -16 -10 -8 -3 -12 -2 -9 4 6 10 25 14 25 6z m-1841
-32 c2 -2 -12 -4 -31 -4 -20 0 -38 -5 -40 -12 -3 -7 -10 -8 -17 -4 -19 12 28
35 59 28 14 -2 27 -6 29 -8z m4317 2 c8 -8 10 -17 5 -21 -5 -3 -12 -1 -16 5
-3 5 -27 11 -53 11 -46 2 -46 2 -12 9 54 11 60 11 76 -4z m-3825 -23 c13 -16
12 -17 -3 -4 -10 7 -18 15 -18 17 0 8 8 3 21 -13z m1886 -8 c-15 -16 -22 -11
-13 10 3 9 10 13 16 10 6 -4 5 -11 -3 -20z m-650 -7 c-3 -8 -6 -5 -6 6 -1 11
2 17 5 13 3 -3 4 -12 1 -19z m-1425 -6 c-24 -8 -11 -32 21 -40 30 -8 30 -9 10
-16 -24 -8 -31 -30 -13 -41 5 -3 29 -10 52 -15 l43 -9 -43 3 c-53 5 -75 22
-68 52 4 14 1 24 -9 28 -8 3 -15 17 -15 30 0 20 4 24 17 19 11 -4 12 -8 5 -11z
m2281 -22 c4 -14 3 -31 -2 -38 -13 -22 -29 9 -24 46 6 36 17 32 26 -8z m1367
30 c0 -5 -2 -10 -4 -10 -3 0 -8 5 -11 10 -3 6 -1 10 4 10 6 0 11 -4 11 -10z
m356 -5 c12 -12 12 -16 -5 -25 -29 -15 -38 -12 -15 5 18 14 18 14 -8 15 -33 0
-38 15 -7 17 12 1 28 -4 35 -12z m-4341 -2 c-11 -3 -23 -10 -27 -16 -4 -6 -10
-8 -13 -5 -13 13 6 28 33 27 21 -1 23 -2 7 -6z m2482 -27 l15 -31 -31 29 c-36
35 -35 33 -15 33 8 0 22 -14 31 -31z m-569 3 c3 -12 2 -12 -6 0 -6 8 -15 10
-22 6 -9 -5 -11 -4 -6 4 10 15 28 10 34 -10z m2245 14 c-13 -2 -35 -2 -50 0
-16 2 -5 4 22 4 28 0 40 -2 28 -4z m-3966 -9 c-3 -3 -12 -4 -19 -1 -8 3 -5 6
6 6 11 1 17 -2 13 -5z m1520 -69 c-7 -13 -12 -15 -15 -7 -2 6 -8 10 -12 7 -10
-6 4 47 16 67 13 20 22 -43 11 -67z m124 19 c-26 -32 -27 -17 -3 25 11 20 18
26 20 16 2 -8 -6 -27 -17 -41z m2124 26 c-3 -5 -12 -7 -20 -3 -21 7 -19 13 6
13 11 0 18 -4 14 -10z m332 4 c-3 -3 -12 -4 -19 -1 -8 3 -5 6 6 6 11 1 17 -2
13 -5z m-134 -11 c-13 -2 -33 -2 -45 0 -13 2 -3 4 22 4 25 0 35 -2 23 -4z
m-2261 -45 c-6 -6 -7 0 -4 19 5 21 7 23 10 9 2 -10 0 -22 -6 -28z m848 22 c0
-5 -7 -10 -16 -10 -8 0 -12 5 -9 10 3 6 10 10 16 10 5 0 9 -4 9 -10z m-59 -18
c-13 -2 -27 0 -32 5 -6 6 3 7 23 4 28 -4 29 -6 9 -9z m1412 11 c-7 -2 -19 -2
-25 0 -7 3 -2 5 12 5 14 0 19 -2 13 -5z m170 0 c-7 -2 -13 -12 -14 -21 0 -11
-2 -12 -6 -4 -2 6 -14 12 -24 12 -11 0 -17 5 -14 10 3 6 21 10 38 9 18 0 26
-3 20 -6z m-4174 -7 c-2 -2 -14 -9 -26 -15 -19 -10 -23 -9 -23 4 0 10 9 15 27
15 14 0 24 -2 22 -4z m134 -3 c-7 -2 -19 -2 -25 0 -7 3 -2 5 12 5 14 0 19 -2
13 -5z m1357 -13 c0 -5 -4 -10 -10 -10 -5 0 -10 5 -10 10 0 6 5 10 10 10 6 0
10 -4 10 -10z m1220 1 c0 -6 17 -12 38 -14 33 -3 32 -4 -11 -5 -27 -1 -46 2
-43 7 4 5 0 12 -6 14 -8 3 -6 6 5 6 9 1 17 -3 17 -8z m1125 -1 c-11 -5 -31 -8
-45 -8 -23 0 -22 1 5 8 42 11 65 11 40 0z m-1178 -6 c-3 -3 -12 -4 -19 -1 -8
3 -5 6 6 6 11 1 17 -2 13 -5z m-1114 -11 c-7 -2 -19 -2 -25 0 -7 3 -2 5 12 5
14 0 19 -2 13 -5z m1977 4 c0 -2 -17 -19 -37 -38 l-38 -34 34 38 c33 34 41 42
41 34z m-2093 -22 c0 -10 -10 -15 -31 -14 -17 1 -23 3 -13 6 9 2 17 9 17 14 0
5 6 9 13 9 8 0 14 -7 14 -15z m53 5 c0 -5 -7 -10 -16 -10 -8 0 -12 5 -9 10 3
6 10 10 16 10 5 0 9 -4 9 -10z m901 -7 c13 -16 12 -17 -3 -4 -10 7 -18 15 -18
17 0 8 8 3 21 -13z m1602 10 c-7 -2 -19 -2 -25 0 -7 3 -2 5 12 5 14 0 19 -2
13 -5z m144 -4 c-9 -6 -15 -15 -11 -20 3 -6 -8 -15 -25 -22 -17 -6 -31 -18
-31 -25 0 -12 -3 -12 -16 -1 -17 14 -16 15 41 34 19 6 19 7 2 20 -18 13 -17
14 10 18 47 7 49 7 30 -4z m-1302 -9 c3 -6 -4 -10 -17 -10 -18 0 -20 2 -8 10
19 12 18 12 25 0z m-2795 -7 c-8 -3 -18 -10 -21 -15 -3 -5 -9 -3 -12 6 -5 12
0 16 21 15 16 0 21 -3 12 -6z m3750 3 c0 -8 -60 -12 -72 -4 -8 4 4 8 30 8 23
0 42 -2 42 -4z m-3385 -30 c0 -13 -3 -22 -7 -19 -5 2 -8 10 -8 18 0 7 -10 16
-22 18 -18 3 -17 5 7 6 25 1 30 -3 30 -23z m2500 -9 c19 -4 19 -5 -1 -6 -11 0
-29 9 -40 22 -19 22 -19 22 1 6 11 -10 29 -19 40 -22z m-1589 14 c-6 -9 -46
-22 -46 -15 0 3 10 9 23 14 29 11 29 11 23 1z m2611 3 c-3 -3 -12 -4 -19 -1
-8 3 -5 6 6 6 11 1 17 -2 13 -5z m-3842 -24 c-3 -5 -11 -10 -16 -10 -6 0 -7 5
-4 10 3 6 11 10 16 10 6 0 7 -4 4 -10z m3635 0 c-20 -13 -40 -13 -40 0 0 6 12
10 28 10 21 0 24 -2 12 -10z m-3277 -26 c-4 -12 -8 -13 -14 -3 -9 15 -2 32 11
24 5 -3 6 -13 3 -21z m2372 16 c12 -5 -1 -6 -35 -3 -30 3 -57 7 -59 9 -9 8 75
2 94 -6z m163 -25 c-6 -6 -58 8 -58 16 0 4 14 3 31 -3 16 -6 29 -12 27 -13z
m722 5 c0 -5 -12 -13 -27 -16 -16 -4 -30 -11 -33 -15 -3 -4 -12 -4 -20 1 -10
6 -7 10 16 15 16 3 36 10 44 15 20 12 20 12 20 0z m203 3 c-7 -2 -21 -2 -30 0
-10 3 -4 5 12 5 17 0 24 -2 18 -5z m-3636 -9 c-3 -3 -12 -4 -19 -1 -8 3 -5 6
6 6 11 1 17 -2 13 -5z m1136 -1 c-13 -2 -35 -2 -50 0 -16 2 -5 4 22 4 28 0 40
-2 28 -4z m2647 0 c-8 -3 -18 -11 -22 -17 -4 -6 -10 -7 -15 -3 -9 10 16 27 37
26 13 -1 13 -1 0 -6z m-3935 -13 c3 -5 1 -10 -4 -10 -6 0 -11 5 -11 10 0 6 2
10 4 10 3 0 8 -4 11 -10z m2762 4 c-3 -3 -12 -4 -19 -1 -8 3 -5 6 6 6 11 1 17
-2 13 -5z m131 -19 c-3 -3 -9 2 -12 12 -6 14 -5 15 5 6 7 -7 10 -15 7 -18z
m-413 5 c13 -6 15 -9 5 -9 -8 0 -22 4 -30 9 -18 12 -2 12 25 0z m-1455 -20 c0
-5 -5 -10 -11 -10 -5 0 -7 5 -4 10 3 6 8 10 11 10 2 0 4 -4 4 -10z m1925 -16
c19 -15 23 -22 11 -18 -21 8 -61 44 -48 44 4 -1 21 -12 37 -26z m-112 9 c-7
-2 -21 -2 -30 0 -10 3 -4 5 12 5 17 0 24 -2 18 -5z m1044 1 c-3 -3 -12 -4 -19
-1 -8 3 -5 6 6 6 11 1 17 -2 13 -5z m-3837 -8 c0 -3 -4 -8 -10 -11 -5 -3 -10
-1 -10 4 0 6 5 11 10 11 6 0 10 -2 10 -4z m1370 -6 c-8 -5 -19 -10 -25 -10 -5
0 -3 5 5 10 8 5 20 10 25 10 6 0 3 -5 -5 -10z m-440 -14 c0 -3 -4 -8 -10 -11
-5 -3 -10 -1 -10 4 0 6 5 11 10 11 6 0 10 -2 10 -4z m1903 -3 c-7 -2 -19 -2
-25 0 -7 3 -2 5 12 5 14 0 19 -2 13 -5z m602 -3 c-27 -12 -35 -12 -35 0 0 6
12 10 28 9 24 0 25 -1 7 -9z m376 -10 c-13 -11 -28 -20 -34 -20 -13 0 -4 9 25
26 33 18 36 16 9 -6z m-3771 -22 c0 -13 -13 -9 -40 12 l-25 20 33 -12 c17 -7
32 -16 32 -20z m2837 26 c-3 -3 -12 -4 -19 -1 -8 3 -5 6 6 6 11 1 17 -2 13 -5z
m-2467 -8 c0 -3 -4 -8 -10 -11 -5 -3 -10 -1 -10 4 0 6 5 11 10 11 6 0 10 -2
10 -4z m2571 -34 c-7 -2 -18 1 -23 6 -8 8 -4 9 13 5 13 -4 18 -8 10 -11z m77
8 c14 0 15 -2 3 -9 -17 -11 -25 -51 -11 -51 6 0 10 -10 10 -22 -1 -22 -1 -23
-15 -4 -8 11 -15 30 -15 43 0 13 -7 26 -15 29 -8 4 -12 10 -9 16 3 5 13 7 21
4 8 -3 22 -6 31 -6z m-2748 -10 c0 -5 -2 -10 -4 -10 -3 0 -8 5 -11 10 -3 6 -1
10 4 10 6 0 11 -4 11 -10z m3078 3 c-10 -2 -18 -9 -18 -14 0 -6 -5 -7 -11 -3
-14 8 8 24 31 23 11 -1 10 -3 -2 -6z m-2600 -32 c-15 -24 -28 -27 -28 -6 0 13
31 38 38 30 2 -2 -3 -12 -10 -24z m66 15 c-3 -9 -12 -12 -22 -9 -15 6 -9 11
25 22 1 1 0 -5 -3 -13z m2620 -11 c-4 -8 -10 -12 -15 -9 -11 6 -2 24 11 24 5
0 7 -7 4 -15z m159 -2 c-7 -2 -19 -2 -25 0 -7 3 -2 5 12 5 14 0 19 -2 13 -5z
m-3430 -10 c-7 -2 -19 -2 -25 0 -7 3 -2 5 12 5 14 0 19 -2 13 -5z m157 3 c0
-3 -4 -8 -10 -11 -5 -3 -10 -1 -10 4 0 6 5 11 10 11 6 0 10 -2 10 -4z m2480
-24 c-8 -3 -24 -9 -35 -15 -17 -9 -18 -8 -8 5 7 8 10 17 8 20 -3 3 7 3 22 0
17 -3 22 -7 13 -10z m900 14 c0 -3 -4 -8 -10 -11 -5 -3 -10 -1 -10 4 0 6 5 11
10 11 6 0 10 -2 10 -4z m-417 -13 c-7 -2 -19 -2 -25 0 -7 3 -2 5 12 5 14 0 19
-2 13 -5z m-2550 -20 c-7 -2 -9 -11 -6 -19 3 -8 -1 -14 -11 -14 -10 0 -13 6
-9 18 8 20 25 34 33 25 3 -3 0 -8 -7 -10z m-267 -12 c0 -11 -4 -17 -8 -15 -4
3 -8 12 -8 20 0 8 4 14 8 14 4 0 8 -9 8 -19z m494 9 c0 -5 -5 -10 -11 -10 -5
0 -7 5 -4 10 3 6 8 10 11 10 2 0 4 -4 4 -10z m2436 -5 c-11 -8 -25 -15 -30
-15 -6 1 0 7 14 15 32 19 40 18 16 0z m229 -15 c-27 -12 -35 -12 -35 0 0 6 12
10 28 9 24 0 25 -1 7 -9z m-3495 -17 c0 -10 -4 -14 -8 -8 -4 6 -11 13 -16 18
-5 4 -2 7 7 7 10 0 17 -8 17 -17z m1407 11 c-3 -3 -12 -4 -19 -1 -8 3 -5 6 6
6 11 1 17 -2 13 -5z m1457 -44 c-10 -22 -23 -40 -28 -40 -6 0 -19 -8 -30 -19
-30 -27 -76 -36 -76 -15 0 12 7 15 26 11 18 -3 29 1 37 14 7 11 17 19 23 19
11 0 46 45 50 63 1 4 2 10 3 14 0 3 4 3 8 0 3 -4 -2 -25 -13 -47z m-2607 18
c-3 -8 -6 -5 -6 6 -1 11 2 17 5 13 3 -3 4 -12 1 -19z m3080 16 c-3 -3 -12 -4
-19 -1 -8 3 -5 6 6 6 11 1 17 -2 13 -5z m-2733 -25 c-6 -11 -24 -2 -24 11 0 5
7 7 15 4 8 -4 12 -10 9 -15z m2063 15 c-3 -3 -12 -4 -19 -1 -8 3 -5 6 6 6 11
1 17 -2 13 -5z m512 -20 c10 -9 -65 -3 -78 5 -10 6 1 8 30 4 24 -3 46 -7 48
-9z m246 6 c-3 -5 -10 -10 -16 -10 -5 0 -9 5 -9 10 0 6 7 10 16 10 8 0 12 -4
9 -10z m-3355 -10 c0 -5 -4 -10 -10 -10 -5 0 -10 5 -10 10 0 6 5 10 10 10 6 0
10 -4 10 -10z m554 -26 c13 -33 6 -49 -9 -20 -18 33 -18 36 -6 36 5 0 12 -7
15 -16z m1987 -25 c-19 -15 -26 -17 -32 -7 -9 15 8 28 36 28 19 -1 18 -2 -4
-21z m59 1 c-8 -5 -19 -10 -25 -10 -5 0 -3 5 5 10 8 5 20 10 25 10 6 0 3 -5
-5 -10z m683 -10 c-3 -11 -9 -20 -14 -20 -5 0 -9 9 -9 20 0 11 6 20 14 20 9 0
12 -7 9 -20z m-2673 -29 c-1 -13 -3 -13 -15 3 -19 26 -19 42 0 26 8 -7 15 -20
15 -29z m215 18 c5 -6 4 -9 -3 -9 -10 0 -10 -5 -2 -21 6 -11 9 -25 7 -32 -3
-7 -8 -4 -12 8 -4 11 -20 33 -34 48 l-26 29 30 -8 c17 -3 34 -11 40 -15z
m1665 6 c0 -12 -19 -12 -23 0 -4 9 -1 12 9 8 7 -3 14 -7 14 -8z m-2425 -4 c3
-5 1 -12 -5 -16 -5 -3 -10 1 -10 9 0 18 6 21 15 7z m794 -33 c-9 -17 -14 -19
-17 -8 -3 7 0 16 7 18 6 2 11 11 12 20 0 10 3 12 5 5 3 -7 0 -22 -7 -35z
m2248 31 c11 -11 6 -49 -7 -49 -4 0 -10 14 -12 30 -5 32 1 37 19 19z m-2441
-43 c-9 -19 -16 -47 -16 -62 0 -19 -3 -25 -10 -18 -8 8 -7 20 0 39 6 16 9 39
5 52 -4 17 -2 21 10 17 8 -4 15 -1 15 7 0 7 3 9 6 6 4 -3 -1 -22 -10 -41z
m-539 2 c-3 -7 -5 -2 -5 12 0 14 2 19 5 13 2 -7 2 -19 0 -25z m111 7 c0 -14
-5 -28 -10 -31 -5 -3 -4 -12 3 -20 9 -11 8 -14 -5 -14 -12 0 -15 9 -12 43 5
50 4 47 15 47 5 0 9 -11 9 -25z m2282 16 c0 -6 -4 -13 -10 -16 -5 -3 -10 1
-10 9 0 9 5 16 10 16 6 0 10 -4 10 -9z m310 -5 c0 -3 -4 -8 -10 -11 -5 -3 -10
-1 -10 4 0 6 5 11 10 11 6 0 10 -2 10 -4z m347 -12 c-3 -3 -12 -4 -19 -1 -8 3
-5 6 6 6 11 1 17 -2 13 -5z m-2657 -25 c0 -11 -4 -17 -10 -14 -5 3 -10 13 -10
21 0 8 5 14 10 14 6 0 10 -9 10 -21z m2268 -19 c-7 -11 -16 -20 -19 -20 -4 0
-5 9 -2 20 3 11 12 20 19 20 12 0 12 -4 2 -20z m326 6 c-3 -8 -12 -12 -21 -9
-12 5 -12 7 -1 14 20 13 28 11 22 -5z m-388 -18 c24 4 25 3 13 -16 -12 -19
-14 -19 -36 -4 -12 10 -22 24 -22 32 0 13 1 12 9 -1 6 -11 18 -15 36 -11z
m-2179 -20 c-3 -7 -5 -2 -5 12 0 14 2 19 5 13 2 -7 2 -19 0 -25z m2853 -6 c0
-10 11 -22 25 -28 22 -8 23 -11 10 -28 -12 -16 -18 -17 -27 -8 -9 9 -8 12 5
12 9 0 17 5 17 10 0 6 -10 10 -22 10 -24 0 -63 20 -40 20 6 0 12 7 12 15 0 8
5 15 10 15 6 0 10 -8 10 -18z m-2787 1 c4 -3 3 -11 -2 -17 -5 -6 -11 -20 -14
-31 -3 -12 -5 -4 -6 18 -1 35 7 46 22 30z m-660 -17 c8 -19 -1 -26 -35 -26
-15 0 -28 -4 -28 -10 0 -5 8 -10 17 -10 14 0 14 -3 5 -12 -10 -10 -15 -10 -22
2 -14 21 -7 34 19 38 15 2 21 9 17 18 -3 8 1 14 8 14 8 0 16 -6 19 -14z m534
-28 c-3 -8 -6 -5 -6 6 -1 11 2 17 5 13 3 -3 4 -12 1 -19z m10 -40 c-3 -8 -6
-5 -6 6 -1 11 2 17 5 13 3 -3 4 -12 1 -19z m2603 12 c0 -5 -2 -10 -4 -10 -3 0
-8 5 -11 10 -3 6 -1 10 4 10 6 0 11 -4 11 -10z m-2865 -10 c3 -5 1 -10 -4 -10
-6 0 -11 5 -11 10 0 6 2 10 4 10 3 0 8 -4 11 -10z m3009 -5 c3 -8 1 -15 -3
-15 -5 0 -11 7 -15 15 -3 8 -1 15 3 15 5 0 11 -7 15 -15z m-2637 -17 c-3 -8
-6 -5 -6 6 -1 11 2 17 5 13 3 -3 4 -12 1 -19z m2835 -13 c-7 -24 -9 -26 -15
-12 -4 10 -1 24 6 32 16 18 18 14 9 -20z m-3348 10 c-4 -8 -8 -15 -10 -15 -2
0 -4 7 -4 15 0 8 4 15 10 15 5 0 7 -7 4 -15z m2717 -8 c-10 -9 -11 -8 -5 6 3
10 9 15 12 12 3 -3 0 -11 -7 -18z m264 13 c3 -5 1 -10 -4 -10 -6 0 -11 5 -11
10 0 6 2 10 4 10 3 0 8 -4 11 -10z m-3165 -14 c0 -2 -7 -9 -15 -16 -12 -10
-15 -10 -15 4 0 9 7 16 15 16 8 0 15 -2 15 -4z m3310 -18 c0 -12 -1 -19 -3
-17 -1 2 -9 12 -16 22 -12 14 -11 17 3 17 10 0 16 -8 16 -22z m-3100 2 c0 -5
-5 -10 -11 -10 -5 0 -7 5 -4 10 3 6 8 10 11 10 2 0 4 -4 4 -10z m3287 -43 c-8
-7 -16 -18 -18 -25 -3 -8 -8 -5 -17 8 -11 18 -10 20 8 20 11 0 24 8 27 17 5
12 8 13 11 4 2 -7 -3 -18 -11 -24z m-427 1 c0 -13 -50 -61 -57 -54 -8 7 7 27
16 21 5 -2 11 9 15 26 5 27 26 33 26 7z m-2612 -38 c-2 -5 -9 -6 -17 -1 -9 6
-11 16 -7 27 7 18 8 18 17 1 6 -10 9 -22 7 -27z m-416 18 c-9 -9 -15 -9 -24 0
-9 9 -7 12 12 12 19 0 21 -3 12 -12z m3384 -16 c15 -9 0 -52 -18 -52 -9 0 -8
3 2 10 12 8 13 13 2 30 -12 20 -6 26 14 12z m-3336 -16 c0 -11 -19 -15 -25 -6
-3 5 1 10 9 10 9 0 16 -2 16 -4z m400 -17 c0 -6 -4 -7 -10 -4 -5 3 -10 11 -10
16 0 6 5 7 10 4 6 -3 10 -11 10 -16z m2216 -6 c-8 -8 -36 5 -36 17 0 7 6 7 21
0 11 -7 18 -14 15 -17z m104 12 c-10 -12 -8 -21 8 -49 19 -32 19 -46 0 -46 -4
0 -8 7 -8 15 0 8 -4 15 -9 15 -5 0 -8 8 -7 18 0 9 -5 17 -11 16 -7 -1 -22 -2
-33 -2 -18 -2 -19 -5 -10 -23 7 -11 9 -23 6 -26 -3 -3 -8 2 -12 11 -3 9 -10
13 -15 10 -14 -8 -11 16 4 30 7 7 18 11 25 8 6 -2 12 1 12 7 0 6 9 11 19 11
11 0 23 5 26 10 3 6 9 10 12 10 3 0 0 -7 -7 -15z m185 -15 c7 -11 -31 -23 -45
-15 -6 4 -8 10 -6 14 7 10 45 11 51 1z m381 -18 c2 -11 -1 -24 -6 -27 -5 -3
-7 0 -4 8 3 8 1 18 -5 22 -15 8 -14 28 1 23 6 -2 13 -14 14 -26z m-3226 10 c0
-13 -12 -22 -22 -16 -10 6 -1 24 13 24 5 0 9 -4 9 -8z m575 -30 c-14 -2 -24
-9 -22 -15 4 -14 -24 -48 -34 -41 -5 3 0 19 11 36 10 17 16 36 13 41 -4 6 1 8
10 4 10 -4 17 -1 17 6 0 7 7 3 16 -8 14 -19 13 -20 -11 -23z m105 29 c0 -5 -6
-14 -14 -20 -10 -9 -15 -8 -19 3 -3 8 -3 17 0 20 9 9 33 7 33 -3z m-280 -13
c0 -12 -16 -17 -39 -11 -16 4 -19 8 -10 14 15 9 49 8 49 -3z m2106 4 c6 -4 15
-22 19 -39 3 -18 12 -33 18 -34 17 -1 -34 -17 -60 -18 -16 -1 -20 3 -16 19 3
11 11 20 18 20 17 0 13 39 -5 50 -13 9 -13 10 0 10 8 0 20 -4 26 -8z m500 -14
c12 -15 13 -18 3 -10 -9 7 -25 9 -35 5 -16 -6 -17 -5 -4 10 8 9 15 16 16 17 0
0 9 -10 20 -22z m-2786 -3 c0 -8 -4 -15 -10 -15 -5 0 -7 7 -4 15 4 8 8 15 10
15 2 0 4 -7 4 -15z m2560 -6 c0 -4 -6 -6 -14 -3 -8 3 -17 1 -21 -5 -9 -15 -38
-14 -32 2 2 6 9 12 15 12 5 0 13 3 17 7 9 8 35 -1 35 -13z m310 -1 c0 -13 -23
-5 -28 10 -2 7 2 10 12 6 9 -3 16 -11 16 -16z m75 -8 c0 -7 -5 -15 -10 -17 -6
-2 -11 6 -11 17 0 11 5 19 11 17 5 -2 10 -10 10 -17z m-3035 -6 c0 -8 -5 -12
-10 -9 -6 4 -8 11 -5 16 9 14 15 11 15 -7z m309 -5 c-7 -4 -17 -5 -22 -2 -5 3
-3 9 4 14 7 4 17 5 22 2 5 -3 3 -9 -4 -14z m199 3 c2 -7 -4 -12 -13 -12 -12 0
-15 -5 -10 -17 4 -12 3 -15 -4 -8 -13 13 -2 57 12 52 6 -2 13 -9 15 -15z m72
3 c-11 -13 -8 -25 12 -50 5 -5 15 -19 22 -29 13 -19 15 -19 40 -3 l26 17 0
-33 c0 -107 -66 -243 -161 -330 l-67 -63 -5 -212 c-2 -117 0 -215 4 -218 5 -3
56 31 114 75 58 45 108 81 110 81 3 0 5 -62 5 -139 0 -111 -3 -141 -15 -151
-13 -11 -15 -61 -15 -335 0 -418 0 -420 -133 -548 l-92 -89 -3 386 c-1 212 -5
386 -7 386 -3 0 -35 -23 -70 -51 l-65 -51 0 -263 c0 -195 -4 -284 -16 -346
-21 -113 -85 -246 -158 -324 l-55 -60 -1 551 0 550 80 63 80 63 0 373 0 373
28 22 c24 20 144 99 310 205 34 21 62 45 62 52 0 7 -15 16 -32 21 -28 7 -33
13 -34 38 -1 33 12 54 33 54 12 0 13 -3 3 -15z m-660 -11 c0 -8 -4 -12 -10 -9
-5 3 -10 10 -10 16 0 5 5 9 10 9 6 0 10 -7 10 -16z m426 -11 c-10 -10 -19 5
-10 18 6 11 8 11 12 0 2 -7 1 -15 -2 -18z m1989 17 c-3 -5 -17 -10 -31 -10
-13 0 -24 5 -24 10 0 6 14 10 31 10 17 0 28 -4 24 -10z m-1687 -22 c8 -10 4
-13 -14 -13 -24 0 -30 6 -17 18 10 10 19 8 31 -5z m1852 -58 c-6 -11 -18 -20
-27 -20 -9 0 -13 3 -10 7 4 3 2 12 -4 19 -15 19 -1 38 17 23 8 -6 15 -8 15 -3
5 40 12 49 16 22 2 -15 -1 -36 -7 -48z m-2056 18 c-5 -16 -3 -19 14 -14 16 6
19 2 18 -24 -1 -34 -8 -37 -30 -14 -19 19 -30 59 -21 74 11 17 26 0 19 -22z
m936 -1262 c0 -690 -4 -1257 -8 -1260 -4 -2 -49 25 -100 62 -50 37 -150 110
-222 161 -71 52 -130 98 -130 101 0 3 29 35 65 70 l65 64 59 -42 c33 -23 62
-42 66 -42 3 0 5 438 5 973 l0 974 23 41 c19 36 147 150 170 152 4 0 7 -564 7
-1254z m275 1193 c115 -93 105 14 105 -1107 0 -544 4 -972 9 -972 4 0 31 18
59 40 27 22 54 40 58 40 10 0 134 -121 134 -131 0 -4 -71 -58 -157 -120 -87
-62 -187 -134 -222 -161 -35 -26 -68 -48 -72 -48 -5 0 -9 567 -9 1261 0 1115
2 1260 15 1255 8 -3 44 -29 80 -57z m663 34 c26 -15 52 -31 57 -36 10 -8 208
-136 297 -192 35 -22 47 -36 51 -60 3 -17 3 -187 1 -377 l-5 -346 86 -68 85
-68 0 -543 c0 -316 -4 -543 -9 -543 -21 0 -115 125 -150 202 -59 126 -63 153
-68 480 l-5 298 -61 49 c-34 27 -65 47 -69 44 -5 -2 -8 -173 -8 -379 0 -224
-4 -374 -9 -372 -29 10 -151 133 -173 175 -39 70 -46 142 -48 473 -1 240 -4
298 -16 311 -11 12 -14 48 -14 152 0 75 3 137 6 137 3 0 39 -26 78 -57 106
-85 125 -98 139 -98 9 0 13 51 15 207 l2 207 -78 78 c-84 83 -123 146 -147
240 -15 58 -20 113 -9 113 3 0 26 -12 52 -27z m-583 -2618 c-9 -34 -34 -78
-65 -117 -27 -35 -59 -80 -70 -101 -18 -32 -24 -36 -48 -31 -54 12 -54 11 -26
66 29 57 27 55 100 115 50 41 88 103 110 178 8 29 8 29 12 -13 2 -23 -4 -67
-13 -97z m-525 104 c0 -22 58 -139 69 -139 16 -1 103 -91 131 -138 35 -57 33
-66 -16 -76 -29 -7 -33 -4 -54 36 -12 24 -37 59 -55 78 -19 19 -46 62 -61 95
-30 64 -45 165 -25 165 6 0 11 -9 11 -21z m21 -448 l54 -31 -41 0 c-43 0 -140
52 -129 69 8 13 52 -1 116 -38z m597 37 c-3 -7 -25 -26 -50 -41 -34 -21 -55
-28 -84 -25 l-39 3 55 29 c81 42 125 55 118 34z m-443 -88 c10 -11 15 -23 12
-26 -8 -8 -57 23 -57 36 0 17 26 11 45 -10z m215 11 c0 -6 -10 -17 -22 -26
-26 -17 -37 -3 -18 20 14 17 40 20 40 6z m-1485 -98 c273 -362 654 -590 1110
-664 102 -17 397 -17 495 0 369 63 659 207 916 454 62 60 143 149 180 198 37
49 72 89 78 89 6 -1 46 -33 89 -73 l77 -72 -28 -42 c-83 -124 -274 -316 -419
-421 -254 -182 -486 -281 -803 -344 -100 -20 -144 -23 -345 -22 -208 1 -243 3
-360 27 -384 79 -719 255 -991 524 -91 90 -131 136 -188 213 -45 61 -46 64
-29 80 75 71 144 130 152 130 5 0 35 -35 66 -77z m3510 -128 c99 -179 119
-203 200 -245 40 -20 47 -71 14 -106 -32 -34 -52 -30 -113 25 -60 54 -93 63
-273 77 -53 4 -97 12 -103 19 -27 33 45 114 89 100 36 -11 134 -24 142 -19 12
7 -4 37 -52 100 -41 54 -46 72 -28 107 34 63 65 49 124 -58z m-4190 28 c42
-47 34 -74 -35 -117 -41 -26 -60 -44 -60 -57 0 -19 55 -109 66 -109 11 0 50
24 84 52 19 15 44 28 56 28 26 0 74 -53 74 -80 0 -22 -25 -50 -45 -50 -20 0
-279 -175 -293 -199 -28 -47 -102 -4 -102 60 0 24 11 35 70 73 39 25 70 50 70
55 0 13 -79 111 -89 111 -5 0 -29 -16 -53 -35 -71 -57 -84 -62 -116 -38 -33
24 -50 68 -36 90 5 8 25 20 45 27 46 16 227 138 270 182 40 41 60 43 94 7z
m1983 -90 c12 -13 29 -40 37 -59 21 -51 45 -40 45 22 0 13 6 24 13 24 7 0 18
10 26 22 14 22 14 21 27 -22 15 -48 17 -143 5 -173 -6 -17 -8 -17 -20 -3 -16
19 -31 12 -31 -14 0 -25 -39 -130 -48 -130 -11 1 -90 132 -97 163 -4 15 -11
29 -15 32 -5 3 -2 26 7 51 10 29 14 65 11 97 -4 42 -3 48 6 33 6 -11 21 -30
34 -43z m137 -273 c3 -5 1 -10 -4 -10 -6 0 -11 5 -11 10 0 6 2 10 4 10 3 0 8
-4 11 -10z m1597 -187 c9 -10 19 -28 22 -40 4 -13 45 -71 90 -131 116 -151
128 -179 85 -203 -29 -15 -77 -6 -219 42 -67 23 -124 39 -127 35 -7 -7 24 -52
87 -125 61 -71 67 -96 30 -133 -25 -24 -33 -27 -50 -18 -12 6 -25 23 -31 36
-19 51 -158 234 -213 281 -33 29 -33 46 0 72 42 33 111 25 282 -31 35 -11 66
-18 69 -15 6 7 -37 66 -94 129 -24 26 -43 55 -43 64 0 48 80 73 112 37z
m-3102 -113 c11 -11 20 -33 20 -50 0 -28 -99 -358 -123 -407 -34 -72 -135 -18
-108 58 22 63 15 94 -29 123 -22 14 -45 26 -51 26 -6 0 -30 -14 -54 -31 -49
-35 -80 -33 -96 7 -11 32 11 80 43 90 13 4 86 48 163 99 77 50 147 94 155 98
30 11 60 7 80 -13z m561 -310 c146 -44 208 -117 178 -211 -10 -33 -26 -53 -61
-79 -44 -32 -48 -39 -48 -75 1 -22 7 -58 15 -80 19 -52 19 -79 -1 -96 -13 -11
-22 -10 -52 6 -34 19 -38 26 -59 109 -12 49 -28 93 -35 98 -19 12 -44 -23 -52
-71 -7 -48 -33 -66 -82 -57 -60 12 -75 64 -32 112 11 12 43 95 73 184 46 140
64 179 84 180 2 0 34 -9 72 -20z m1818 -30 c72 -36 121 -116 142 -233 19 -104
-17 -182 -108 -238 -56 -35 -144 -33 -203 5 -53 33 -78 68 -108 149 -40 105
-23 228 38 282 59 53 172 70 239 35z m-1082 -187 c13 -15 42 -67 65 -115 23
-49 44 -88 48 -88 4 0 28 42 54 93 27 50 57 102 68 114 25 27 70 38 97 23 20
-10 21 -19 21 -190 0 -98 4 -190 9 -203 20 -53 -15 -88 -73 -73 -34 8 -39 27
-46 146 l-5 105 -50 -100 c-42 -85 -54 -100 -76 -103 -37 -4 -53 16 -90 113
-17 47 -35 85 -39 85 -11 0 -17 -37 -19 -122 -2 -87 -18 -118 -60 -118 -45 0
-56 21 -41 77 6 27 13 122 14 212 3 125 6 165 17 172 25 17 82 2 106 -28z"/>
<path d="M3053 6083 c9 -2 23 -2 30 0 6 3 -1 5 -18 5 -16 0 -22 -2 -12 -5z"/>
<path d="M1845 1394 c-11 -8 -27 -19 -35 -24 -12 -7 -12 -11 4 -29 28 -31 42
-26 60 19 9 22 16 43 16 45 0 10 -26 4 -45 -11z"/>
<path d="M2537 1105 c-9 -18 -19 -49 -22 -68 -7 -33 -5 -35 25 -42 24 -5 39
-2 58 12 51 38 45 95 -14 119 -30 12 -31 12 -47 -21z"/>
<path d="M4240 1119 c-67 -24 -74 -111 -19 -227 45 -92 113 -119 166 -66 23
24 25 31 20 87 -11 140 -89 235 -167 206z"/>
</g>
</svg>
